<!-- Generator: Avocode 2.1.0 - http://avocode.com -->
<svg height="17" width="18" xmlns:xlink="http://www.w3.org/1999/xlink" xmlns="http://www.w3.org/2000/svg" viewBox="0 0 18 17">
    <path fill="#858d9c" fill-rule="evenodd" d="M 3.43 0.04 L 2.43 0.04 L 1.14 1.25 L 1.81 1.97 C 2.07 1.73 2.23 1.56 2.28 1.46 L 2.3 1.46 L 2.3 1.57 C 2.3 1.82 2.3 2.21 2.3 2.72 C 2.29 3.23 2.29 3.62 2.29 3.88 L 1.28 3.88 L 1.28 4.81 L 4.46 4.81 L 4.46 3.88 L 3.43 3.88 L 3.43 0.04 L 3.43 0.04 Z M 3.43 0.04" />
    <path fill="#858d9c" fill-rule="evenodd" d="M 17.72 2.48 C 17.66 2.42 17.59 2.39 17.51 2.39 L 5.97 2.39 C 5.89 2.39 5.82 2.42 5.76 2.48 C 5.7 2.54 5.67 2.61 5.67 2.69 L 5.67 4.51 C 5.67 4.59 5.7 4.66 5.76 4.72 C 5.82 4.78 5.89 4.81 5.97 4.81 L 17.51 4.81 C 17.59 4.81 17.66 4.78 17.72 4.72 C 17.78 4.66 17.81 4.59 17.81 4.51 L 17.81 2.69 C 17.81 2.61 17.78 2.54 17.72 2.48 L 17.72 2.48 Z M 17.72 2.48" />
    <path fill="#858d9c" fill-rule="evenodd" d="M 3.37 14.03 L 4.28 12.94 L 4.28 12.1 L 1.12 12.1 L 1.12 13.54 L 2.12 13.54 L 2.12 13.04 C 2.22 13.04 2.38 13.04 2.58 13.03 C 2.79 13.02 2.94 13.02 3.04 13.02 L 3.04 13.03 C 2.92 13.14 2.8 13.27 2.69 13.4 C 2.58 13.53 2.44 13.7 2.29 13.91 C 2.13 14.12 2.03 14.26 1.98 14.32 L 2.23 14.85 C 2.89 14.8 3.22 14.98 3.22 15.38 C 3.22 15.56 3.15 15.69 3.02 15.79 C 2.88 15.88 2.72 15.92 2.54 15.92 C 2.18 15.92 1.84 15.78 1.53 15.5 L 0.99 16.33 C 1.41 16.75 1.95 16.96 2.62 16.96 C 3.14 16.96 3.57 16.81 3.91 16.52 C 4.25 16.23 4.43 15.83 4.43 15.33 C 4.43 15 4.33 14.72 4.14 14.49 C 3.95 14.26 3.7 14.1 3.37 14.03 L 3.37 14.03 Z M 3.37 14.03" />
    <path fill="#858d9c" fill-rule="evenodd" d="M 3.45 9.95 L 2.24 9.95 C 2.25 9.79 2.36 9.62 2.58 9.45 C 2.8 9.27 3.04 9.12 3.3 8.97 C 3.56 8.82 3.79 8.62 4.01 8.36 C 4.22 8.1 4.33 7.81 4.33 7.49 C 4.33 7.04 4.17 6.69 3.86 6.42 C 3.54 6.16 3.15 6.03 2.69 6.03 C 2.32 6.03 1.99 6.12 1.69 6.3 C 1.39 6.48 1.16 6.73 1.01 7.05 L 1.82 7.61 C 2.04 7.25 2.3 7.06 2.59 7.06 C 2.74 7.06 2.87 7.11 2.96 7.19 C 3.05 7.28 3.1 7.4 3.1 7.56 C 3.1 7.7 3.02 7.84 2.88 7.98 C 2.73 8.12 2.55 8.26 2.34 8.4 C 2.13 8.53 1.92 8.68 1.71 8.85 C 1.51 9.01 1.33 9.23 1.18 9.49 C 1.03 9.76 0.95 10.05 0.95 10.37 C 0.95 10.49 0.97 10.66 1.01 10.89 L 4.45 10.89 L 4.45 9.38 L 4.45 9.38 L 3.45 9.38 L 3.45 9.95 L 3.45 9.95 Z M 3.45 9.95" />
    <path fill="#858d9c" fill-rule="evenodd" d="M 17.51 12.1 L 5.97 12.1 C 5.88 12.1 5.81 12.13 5.75 12.19 C 5.7 12.24 5.67 12.32 5.67 12.4 L 5.67 14.23 C 5.67 14.31 5.7 14.38 5.76 14.44 C 5.82 14.5 5.89 14.53 5.97 14.53 L 17.51 14.53 C 17.59 14.53 17.66 14.5 17.72 14.44 C 17.78 14.38 17.81 14.31 17.81 14.23 L 17.81 12.4 C 17.81 12.32 17.78 12.25 17.72 12.19 C 17.66 12.13 17.59 12.1 17.51 12.1 L 17.51 12.1 Z M 17.51 12.1" />
    <path fill="#858d9c" fill-rule="evenodd" d="M 17.51 7.24 L 5.97 7.24 C 5.88 7.24 5.81 7.27 5.75 7.33 C 5.7 7.39 5.67 7.46 5.67 7.55 L 5.67 9.37 C 5.67 9.45 5.7 9.52 5.76 9.58 C 5.82 9.64 5.89 9.67 5.97 9.67 L 17.51 9.67 C 17.59 9.67 17.66 9.64 17.72 9.58 C 17.78 9.52 17.81 9.45 17.81 9.37 L 17.81 7.55 C 17.81 7.46 17.78 7.39 17.72 7.33 C 17.66 7.27 17.59 7.24 17.51 7.24 L 17.51 7.24 Z M 17.51 7.24" />
</svg>