<!-- Generator: Avocode 2.1.0 - http://avocode.com -->
<svg height="20" width="19" xmlns:xlink="http://www.w3.org/1999/xlink" xmlns="http://www.w3.org/2000/svg" viewBox="0 0 19 20">
    <path fill="#858d9c" fill-rule="evenodd" d="M 12.67 2.49 L 10.13 2.49 L 10.13 1.25 C 10.13 0.56 9.56 0 8.87 0 L 6.33 0 C 5.64 0 5.07 0.56 5.07 1.25 L 5.07 2.49 L 2.53 2.49 L 2.53 4.98 L 12.67 4.98 L 12.67 2.49 Z M 8.87 2.49 L 6.33 2.49 L 6.33 1.25 C 6.33 1.25 6.33 1.25 6.34 1.25 L 8.86 1.25 C 8.87 1.25 8.87 1.25 8.87 1.25 L 8.87 2.49 Z M 15.2 6.23 L 15.2 3.11 C 15.2 2.77 14.92 2.49 14.57 2.49 L 13.3 2.49 L 13.3 3.74 L 13.93 3.74 L 13.93 6.23 L 6.33 6.23 L 6.33 14.95 L 1.27 14.95 L 1.27 3.74 L 1.9 3.74 L 1.9 2.49 L 0.63 2.49 C 0.28 2.49 0 2.77 0 3.11 L 0 15.57 C 0 15.91 0.28 16.19 0.63 16.19 L 6.33 16.19 L 6.33 19.93 L 15.2 19.93 L 19 16.19 L 19 6.23 L 15.2 6.23 Z M 15.2 18.17 L 15.2 16.19 L 17.21 16.19 L 15.2 18.17 Z M 17.73 14.95 L 13.93 14.95 L 13.93 18.69 L 7.6 18.69 L 7.6 7.47 L 17.73 7.47 L 17.73 14.95 Z M 17.73 14.95" />
</svg>