<!-- Generator: Avocode 2.1.0 - http://avocode.com -->
<svg height="18" width="18" xmlns:xlink="http://www.w3.org/1999/xlink" xmlns="http://www.w3.org/2000/svg" viewBox="0 0 18 18">
    <path fill="#858d9c" fill-rule="evenodd" d="M 17.45 14.77 L 13.84 11.86 L 13.84 0.4 L 0 0.4 L 0 18 L 13.84 18 L 13.84 15.34 L 15.75 16.88 C 15.75 16.88 16.63 16.79 17.09 16.13 C 17.55 15.47 17.45 14.77 17.45 14.77 L 17.45 14.77 Z M 12.72 16.88 L 1.12 16.88 L 1.12 1.52 L 12.72 1.52 L 12.72 11.09 L 11.48 10.75 L 10.55 11.9 L 11.29 13.28 L 12.72 14.43 L 12.72 16.88 Z M 12.72 16.88" />
    <path fill="#858d9c" fill-rule="evenodd" d="M 10.18 4.98 C 8.25 3.43 5.43 3.73 3.88 5.66 C 2.33 7.58 2.63 10.4 4.56 11.95 C 6.48 13.5 9.3 13.2 10.85 11.28 C 12.4 9.35 12.1 6.54 10.18 4.98 L 10.18 4.98 Z M 10.05 10.63 C 8.86 12.11 6.68 12.34 5.2 11.15 C 3.72 9.95 3.49 7.78 4.68 6.3 C 5.88 4.82 8.05 4.59 9.53 5.78 C 11.01 6.98 11.24 9.15 10.05 10.63 L 10.05 10.63 Z M 10.05 10.63" />
</svg>