<!-- Generator: Avocode 2.1.0 - http://avocode.com -->
<svg height="18" width="19" xmlns:xlink="http://www.w3.org/1999/xlink" xmlns="http://www.w3.org/2000/svg" viewBox="0 0 19 18">
    <path stroke-linejoin="miter" stroke-linecap="butt" stroke-width="1" stroke="#858d9c" fill="#ffffff" fill-rule="evenodd" d="M 8.64 9.72 C 8.64 8.61 9.54 7.71 10.63 7.71 L 17 7.71 C 18.11 7.71 19 8.61 19 9.72 L 19 15.99 C 19 17.1 18.1 18 17 18 L 10.63 18 C 9.53 18 8.64 17.11 8.64 15.99 L 8.64 9.72 Z M 8.64 9.72" />
    <path stroke-linejoin="miter" stroke-linecap="butt" stroke-width="1" stroke="#858d9c" fill="#ffffff" fill-rule="evenodd" d="M 0 2 C 0 0.89 0.9 0 2 0 L 12.69 0 C 13.79 0 14.68 0.89 14.68 2 L 14.68 12.58 C 14.68 13.68 13.79 14.57 12.69 14.57 L 2 14.57 C 0.89 14.57 0 13.68 0 12.58 L 0 2 Z M 0 2" />
</svg>