<!-- Generator: Avocode 2.1.0 - http://avocode.com -->
<svg height="19" width="17" xmlns:xlink="http://www.w3.org/1999/xlink" xmlns="http://www.w3.org/2000/svg" viewBox="0 0 17 19">
    <path fill="#858d9c" fill-rule="evenodd" d="M 12.57 0.04 L 4.48 0.04 C 4.09 0.04 3.77 0.34 3.77 0.72 L 3.77 3.68 L 0.71 3.68 C 0.32 3.68 0 3.99 0 4.37 L 0 18.27 C 0 18.64 0.32 18.95 0.71 18.95 L 12.61 18.95 C 13 18.95 13.32 18.64 13.32 18.27 L 13.32 15.19 L 16.26 15.19 C 16.65 15.19 16.97 14.88 16.97 14.51 L 16.97 4.31 C 16.97 4.13 16.9 3.96 16.77 3.83 L 13.08 0.24 C 12.95 0.11 12.76 0.04 12.57 0.04 L 12.57 0.04 Z M 11.9 17.58 L 1.41 17.58 L 1.41 5.05 L 3.77 5.05 L 3.77 14.51 C 3.77 14.88 4.09 15.19 4.48 15.19 L 11.9 15.19 L 11.9 17.58 Z M 5.18 13.82 L 5.18 1.4 L 11.31 1.4 L 11.31 5.28 C 11.31 5.65 11.63 5.96 12.02 5.96 L 15.55 5.96 L 15.55 13.82 L 5.18 13.82 Z M 15.55 4.59 L 12.73 4.59 L 12.73 1.84 L 15.55 4.59 Z M 15.55 4.59" />
</svg>