<!-- Generator: Avocode 2.1.0 - http://avocode.com -->
<svg height="20" width="20" xmlns:xlink="http://www.w3.org/1999/xlink" xmlns="http://www.w3.org/2000/svg" viewBox="0 0 20 20">
    <path fill="#858d9c" fill-rule="evenodd" d="M 9.92 12.01 C 9.92 11.9 9.88 11.8 9.79 11.71 L 8.29 10.21 C 8.2 10.12 8.1 10.08 7.99 10.08 C 7.88 10.08 7.78 10.12 7.69 10.21 L 3.32 14.57 L 1.43 12.68 C 1.27 12.51 1.07 12.43 0.84 12.43 C 0.61 12.43 0.42 12.51 0.25 12.68 C 0.08 12.85 0 13.04 0 13.27 L 0 19.16 C 0 19.39 0.08 19.58 0.25 19.75 C 0.42 19.92 0.61 20 0.84 20 L 6.73 20 C 6.96 20 7.15 19.92 7.32 19.75 C 7.49 19.58 7.57 19.39 7.57 19.16 C 7.57 18.93 7.49 18.73 7.32 18.57 L 5.43 16.68 L 9.79 12.31 C 9.88 12.23 9.92 12.12 9.92 12.01 L 9.92 12.01 Z M 9.92 12.01" />
    <path fill="#858d9c" fill-rule="evenodd" d="M 19.16 0 L 13.27 0 C 13.04 0 12.85 0.08 12.68 0.25 C 12.51 0.42 12.43 0.61 12.43 0.84 C 12.43 1.07 12.51 1.27 12.68 1.43 L 14.57 3.32 L 10.21 7.69 C 10.12 7.78 10.08 7.88 10.08 7.99 C 10.08 8.1 10.12 8.2 10.21 8.29 L 11.71 9.79 C 11.8 9.88 11.9 9.92 12.01 9.92 C 12.12 9.92 12.22 9.88 12.31 9.79 L 16.68 5.43 L 18.57 7.32 C 18.73 7.49 18.93 7.57 19.16 7.57 C 19.39 7.57 19.58 7.49 19.75 7.32 C 19.92 7.15 20 6.96 20 6.73 L 20 0.84 C 20 0.61 19.92 0.42 19.75 0.25 C 19.58 0.08 19.39 0 19.16 0 L 19.16 0 Z M 19.16 0" />
</svg>