<!-- Generator: Avocode 2.1.0 - http://avocode.com -->
<svg height="16" width="16" xmlns:xlink="http://www.w3.org/1999/xlink" xmlns="http://www.w3.org/2000/svg" viewBox="0 0 16 16">
    <path fill="#858d9c" fill-rule="evenodd" d="M 15.54 0.77 C 15.26 0.65 15.02 0.7 14.82 0.91 L 13.47 2.25 C 12.73 1.55 11.89 1.01 10.94 0.63 C 9.99 0.25 9.01 0.05 8 0.05 C 6.92 0.05 5.9 0.26 4.92 0.69 C 3.94 1.11 3.09 1.67 2.38 2.38 C 1.67 3.09 1.11 3.94 0.69 4.92 C 0.26 5.9 0.05 6.92 0.05 8 C 0.05 9.08 0.26 10.1 0.69 11.08 C 1.11 12.06 1.67 12.91 2.38 13.62 C 3.09 14.33 3.94 14.89 4.92 15.31 C 5.9 15.73 6.92 15.95 8 15.95 C 9.19 15.95 10.31 15.7 11.38 15.2 C 12.45 14.7 13.36 13.99 14.11 13.08 C 14.17 13.01 14.2 12.93 14.19 12.85 C 14.19 12.76 14.16 12.69 14.09 12.63 L 12.68 11.21 C 12.6 11.15 12.51 11.11 12.42 11.11 C 12.31 11.13 12.23 11.17 12.18 11.24 C 11.68 11.89 11.06 12.4 10.33 12.76 C 9.6 13.12 8.82 13.3 8 13.3 C 7.28 13.3 6.6 13.16 5.95 12.88 C 5.29 12.6 4.73 12.22 4.25 11.75 C 3.78 11.27 3.4 10.71 3.12 10.05 C 2.84 9.4 2.7 8.72 2.7 8 C 2.7 7.28 2.84 6.6 3.12 5.95 C 3.4 5.29 3.78 4.73 4.25 4.25 C 4.73 3.78 5.29 3.4 5.95 3.12 C 6.6 2.84 7.28 2.7 8 2.7 C 9.39 2.7 10.59 3.18 11.61 4.12 L 10.18 5.55 C 9.97 5.75 9.92 5.99 10.04 6.26 C 10.16 6.54 10.36 6.68 10.65 6.68 L 15.28 6.68 C 15.46 6.68 15.62 6.61 15.75 6.48 C 15.88 6.35 15.95 6.19 15.95 6.01 L 15.95 1.38 C 15.95 1.09 15.81 0.89 15.54 0.77 L 15.54 0.77 Z M 15.54 0.77" />
</svg>