<!-- Generator: Avocode 2.1.0 - http://avocode.com -->
<svg height="23" width="28" xmlns:xlink="http://www.w3.org/1999/xlink" xmlns="http://www.w3.org/2000/svg" viewBox="0 0 28 23">
    <text font-weight="400" font-size="18" font-family="Times New Roman" fill="#858d9c" y="13" x="0">
        <tspan>A</tspan>
    </text>
    <path fill="#858d9c" fill-rule="evenodd" d="M 23.93 7.07 L 21.61 3.12 C 21.58 3.06 21.54 3.03 21.5 3.03 C 21.46 3.03 21.42 3.06 21.39 3.12 L 19.07 7.07 C 19.04 7.13 19.02 7.19 19.02 7.27 C 19.02 7.34 19.04 7.4 19.07 7.46 L 19.32 7.88 C 19.35 7.94 19.39 7.97 19.43 7.97 C 19.48 7.97 19.51 7.94 19.55 7.88 L 21.5 4.55 L 23.45 7.88 C 23.49 7.94 23.52 7.97 23.57 7.97 C 23.61 7.97 23.65 7.94 23.68 7.88 L 23.93 7.46 C 23.96 7.4 23.98 7.34 23.98 7.27 C 23.98 7.19 23.96 7.13 23.93 7.07 L 23.93 7.07 Z M 23.93 7.07" />
    <path fill="#858d9c" fill-rule="evenodd" d="M 8.93 21.07 L 6.61 17.12 C 6.58 17.06 6.54 17.03 6.5 17.03 C 6.46 17.03 6.42 17.06 6.39 17.12 L 4.07 21.07 C 4.04 21.13 4.02 21.19 4.02 21.27 C 4.02 21.34 4.04 21.4 4.07 21.46 L 4.32 21.88 C 4.35 21.94 4.39 21.97 4.43 21.97 C 4.48 21.97 4.51 21.94 4.55 21.88 L 6.5 18.55 L 8.45 21.88 C 8.49 21.94 8.52 21.97 8.57 21.97 C 8.61 21.97 8.65 21.94 8.68 21.88 L 8.93 21.46 C 8.96 21.4 8.98 21.34 8.98 21.27 C 8.98 21.19 8.96 21.13 8.93 21.07 L 8.93 21.07 Z M 8.93 21.07" />
    <text font-weight="400" font-size="18" font-family="Times New Roman" fill="#858d9c" y="23" x="16">
        <tspan>B</tspan>
    </text>
</svg>