<!-- Generator: Avocode 2.1.0 - http://avocode.com -->
<svg height="12" width="14" xmlns:xlink="http://www.w3.org/1999/xlink" xmlns="http://www.w3.org/2000/svg" viewBox="0 0 14 12">
    <path fill="#858d9c" fill-rule="evenodd" d="M 9.93 0.86 L 9.93 0.05 C 9.86 0.04 9.79 0.04 9.71 0.04 L 9.39 0.05 L 9.33 0.11 C 9.3 0.15 9.24 0.19 9.17 0.23 C 9.1 0.28 9.02 0.29 8.95 0.29 L 8.69 0.27 L 6.41 0.27 L 4.75 0.27 L 3.85 0.27 L 3.71 0.3 L 2.7 0.3 C 1.71 0.3 1.16 0.28 1.06 0.26 L 0.64 0.05 L 0.01 0.06 L 0.01 0.72 L 0.01 3.03 C 0.07 3.12 0.22 3.23 0.45 3.37 C 0.48 3.37 0.54 3.34 0.61 3.27 C 0.68 3.2 0.73 3.12 0.76 3.02 C 0.81 2.85 0.88 2.63 0.94 2.37 C 1.01 2.11 1.07 1.91 1.11 1.79 C 1.16 1.66 1.22 1.58 1.28 1.53 C 1.37 1.47 1.56 1.41 1.85 1.34 C 2.15 1.27 2.4 1.24 2.63 1.24 C 3.2 1.24 3.58 1.25 3.78 1.28 C 3.82 1.29 3.85 1.3 3.88 1.33 C 3.9 1.35 3.92 1.39 3.93 1.45 C 3.94 1.5 3.95 1.65 3.95 1.89 C 3.95 2.13 3.94 2.39 3.94 2.68 C 3.94 2.98 3.94 3.28 3.95 3.6 L 3.99 6.92 C 4 8.17 3.98 9.29 3.94 10.28 C 3.92 10.46 3.89 10.61 3.85 10.72 C 3.74 10.78 3.33 10.91 2.61 11.11 C 2.31 11.19 2.11 11.32 2 11.49 L 2 11.56 L 2.01 11.76 C 2.01 11.78 2.01 11.85 2.02 11.96 C 2.14 11.96 2.32 11.95 2.57 11.93 C 3.32 11.86 3.92 11.82 4.37 11.82 C 5.23 11.82 5.85 11.84 6.22 11.88 C 6.62 11.93 7.1 11.96 7.67 11.96 C 7.77 11.96 7.86 11.96 7.93 11.95 C 7.95 11.85 7.96 11.78 7.96 11.73 C 7.96 11.7 7.94 11.57 7.92 11.34 C 7.82 11.29 7.69 11.24 7.53 11.2 C 7.45 11.18 7.34 11.15 7.2 11.11 C 7.05 11.06 6.94 11.03 6.86 11 C 6.77 10.98 6.73 10.97 6.72 10.97 C 6.51 10.93 6.28 10.85 6.03 10.72 C 5.96 10.52 5.94 10.3 5.94 10.06 L 5.95 8.92 L 5.93 6.13 L 5.93 3.56 L 5.92 2.38 C 5.91 2.17 5.93 1.82 5.98 1.32 C 6.15 1.3 6.32 1.28 6.5 1.28 C 6.72 1.28 7.01 1.28 7.36 1.27 C 7.71 1.27 7.98 1.27 8.16 1.27 C 8.35 1.27 8.46 1.27 8.49 1.28 C 8.57 1.3 8.64 1.35 8.7 1.43 C 8.71 1.44 8.73 1.52 8.75 1.65 C 8.77 1.79 8.8 1.96 8.84 2.16 C 8.88 2.36 8.92 2.52 8.96 2.65 C 9.11 3.09 9.25 3.42 9.38 3.64 C 9.53 3.63 9.7 3.58 9.91 3.5 C 9.93 3.4 9.94 3.27 9.94 3.11 L 9.94 2.66 L 9.94 1.88 C 9.93 1.2 9.93 0.86 9.93 0.86 L 9.93 0.86 Z M 9.93 0.86" />
    <path fill="#858d9c" fill-rule="evenodd" d="M 13.54 9.97 L 12.92 9.97 L 12.92 2.03 L 13.54 2.03 C 13.72 2.03 13.82 1.98 13.87 1.88 C 13.92 1.79 13.89 1.67 13.79 1.54 L 12.81 0.28 C 12.7 0.15 12.58 0.08 12.43 0.08 C 12.28 0.08 12.15 0.15 12.05 0.28 L 11.07 1.54 C 10.97 1.67 10.94 1.79 10.98 1.88 C 11.03 1.98 11.14 2.03 11.31 2.03 L 11.93 2.03 L 11.93 9.97 L 11.31 9.97 C 11.14 9.97 11.03 10.02 10.98 10.12 C 10.94 10.21 10.97 10.33 11.07 10.46 L 12.05 11.72 C 12.15 11.85 12.28 11.92 12.43 11.92 C 12.58 11.92 12.7 11.85 12.81 11.72 L 13.79 10.46 C 13.89 10.33 13.92 10.21 13.87 10.12 C 13.82 10.02 13.72 9.97 13.54 9.97 L 13.54 9.97 Z M 13.54 9.97" />
</svg>