<!-- Generator: Avocode 2.1.0 - http://avocode.com -->
<svg height="15" width="20" xmlns:xlink="http://www.w3.org/1999/xlink" xmlns="http://www.w3.org/2000/svg" viewBox="0 0 20 15">
    <path fill="#858d9c" fill-rule="evenodd" d="M 19.41 1.75 C 19.31 1.52 19.14 1.33 18.93 1.19 C 18.72 1.05 18.48 0.98 18.22 0.98 L 10.4 0.98 C 10.01 0.98 9.68 1.13 9.42 1.43 L 0.3 11.86 C 0.13 12.05 0.03 12.27 -0.01 12.53 C -0.05 12.78 -0.02 13.02 0.09 13.25 C 0.19 13.48 0.36 13.67 0.57 13.81 C 0.78 13.95 1.02 14.02 1.28 14.02 L 9.1 14.02 C 9.49 14.02 9.82 13.87 10.08 13.57 L 19.2 3.14 C 19.37 2.95 19.47 2.73 19.51 2.47 C 19.55 2.22 19.52 1.98 19.41 1.75 L 19.41 1.75 Z M 9.1 12.71 L 1.28 12.71 L 4.7 8.8 L 12.52 8.8 L 9.1 12.71 L 9.1 12.71 Z M 9.1 12.71" />
</svg>