<!-- Generator: Avocode 2.1.0 - http://avocode.com -->
<svg height="17" width="17" xmlns:xlink="http://www.w3.org/1999/xlink" xmlns="http://www.w3.org/2000/svg" viewBox="0 0 17 17">
    <path fill="#858d9c" fill-rule="evenodd" d="M 12.01 14.83 C 12.1 16.04 13.19 16.81 14.45 16.72 C 15.72 16.64 16.69 15.74 16.6 14.52 C 16.51 13.31 14.07 10.25 14.05 11.11 C 14.03 12.31 11.93 13.61 12.01 14.83 L 12.01 14.83 Z M 12.01 14.83" />
    <path stroke-linejoin="miter" stroke-linecap="butt" stroke-width="1" stroke="#858d9c" fill="none" fill-rule="evenodd" d="M 6.29 1.41 L 0.53 7.98 C 0.4 8.12 0.42 8.34 0.57 8.47 L 7.02 13.76 C 7.17 13.88 7.4 13.87 7.53 13.72 L 12.28 8.47 C 12.4 8.32 14.41 7.73 14.41 7.73 C 14.59 7.65 14.62 7.49 14.47 7.36 L 6.8 1.37 C 6.8 1.37 6.42 1.26 6.29 1.41 Z M 6.29 1.41" />
    <path fill="#858d9c" fill-rule="evenodd" d="M 1.03 7.36 C 0.9 7.51 0.42 8.34 0.57 8.47 L 7.02 13.76 C 7.17 13.88 7.4 13.87 7.53 13.72 L 12.28 8.47 C 12.4 8.32 14.41 7.73 14.41 7.73 C 14.59 7.65 14.62 7.49 14.47 7.36 L 1.03 7.36 Z M 1.03 7.36" />
</svg>