<!-- Generator: Avocode 2.1.0 - http://avocode.com -->
<svg height="18" width="21" xmlns:xlink="http://www.w3.org/1999/xlink" xmlns="http://www.w3.org/2000/svg" viewBox="0 0 21 18">
    <path fill="#858d9c" fill-rule="evenodd" d="M 0.37 12.66 C 0.47 12.66 0.56 12.62 0.63 12.56 L 3.92 9.26 C 3.99 9.19 4.03 9.11 4.03 9 C 4.03 8.89 3.99 8.81 3.92 8.74 L 0.63 5.44 C 0.56 5.38 0.47 5.34 0.37 5.34 C 0.27 5.34 0.18 5.38 0.11 5.45 C 0.04 5.52 0 5.61 0 5.71 L 0 12.29 C 0 12.39 0.04 12.48 0.11 12.55 C 0.18 12.62 0.27 12.66 0.37 12.66 L 0.37 12.66 Z M 0.37 12.66" />
    <path fill="#858d9c" fill-rule="evenodd" d="M 20.13 14.12 L 0.37 14.12 C 0.27 14.12 0.18 14.16 0.11 14.23 C 0.04 14.3 0 14.39 0 14.49 L 0 16.68 C 0 16.78 0.04 16.87 0.11 16.94 C 0.18 17.01 0.27 17.05 0.37 17.05 L 20.13 17.05 C 20.22 17.05 20.31 17.01 20.38 16.94 C 20.46 16.87 20.49 16.78 20.49 16.68 L 20.49 14.49 C 20.49 14.39 20.46 14.3 20.38 14.23 C 20.31 14.16 20.22 14.12 20.13 14.12 L 20.13 14.12 Z M 20.13 14.12" />
    <path fill="#858d9c" fill-rule="evenodd" d="M 20.13 9.73 L 7.68 9.73 C 7.59 9.73 7.5 9.77 7.43 9.84 C 7.35 9.91 7.32 10 7.32 10.1 L 7.32 12.29 C 7.32 12.39 7.35 12.48 7.43 12.55 C 7.5 12.62 7.59 12.66 7.68 12.66 L 20.13 12.66 C 20.22 12.66 20.31 12.62 20.38 12.55 C 20.46 12.48 20.49 12.39 20.49 12.29 L 20.49 10.1 C 20.49 10 20.46 9.91 20.38 9.84 C 20.31 9.77 20.22 9.73 20.13 9.73 L 20.13 9.73 Z M 20.13 9.73" />
    <path fill="#858d9c" fill-rule="evenodd" d="M 20.13 5.34 L 7.68 5.34 C 7.59 5.34 7.5 5.38 7.43 5.45 C 7.35 5.52 7.32 5.61 7.32 5.71 L 7.32 7.9 C 7.32 8 7.35 8.09 7.43 8.16 C 7.5 8.23 7.59 8.27 7.68 8.27 L 20.13 8.27 C 20.22 8.27 20.31 8.23 20.38 8.16 C 20.46 8.09 20.49 8 20.49 7.9 L 20.49 5.71 C 20.49 5.61 20.46 5.52 20.38 5.45 C 20.31 5.38 20.22 5.34 20.13 5.34 L 20.13 5.34 Z M 20.13 5.34" />
    <path fill="#858d9c" fill-rule="evenodd" d="M 20.38 1.06 C 20.31 0.99 20.22 0.95 20.13 0.95 L 0.37 0.95 C 0.27 0.95 0.18 0.99 0.11 1.06 C 0.04 1.13 0 1.22 0 1.32 L 0 3.51 C 0 3.61 0.04 3.7 0.11 3.77 C 0.18 3.84 0.27 3.88 0.37 3.88 L 20.13 3.88 C 20.22 3.88 20.31 3.84 20.38 3.77 C 20.46 3.7 20.49 3.61 20.49 3.51 L 20.49 1.32 C 20.49 1.22 20.46 1.13 20.38 1.06 L 20.38 1.06 Z M 20.38 1.06" />
</svg>