<!-- Generator: Avocode 2.1.0 - http://avocode.com -->
<svg height="16" width="21" xmlns:xlink="http://www.w3.org/1999/xlink" xmlns="http://www.w3.org/2000/svg" viewBox="0 0 21 16">
    <path fill="#858d9c" fill-rule="evenodd" d="M 15.23 2.02 L 15.23 0.39 C 15.23 0.19 15.06 0.02 14.86 0.02 L 5.76 0.02 C 3.92 0.02 2.54 0.42 1.56 1.24 C 0.52 2.09 0 3.31 0 4.85 C 0 6.54 0.51 7.79 1.55 8.68 C 2.59 9.56 4.09 10.01 6.03 10.01 L 7.71 10.01 L 7.71 15.4 C 7.71 15.6 7.88 15.77 8.08 15.77 L 9.23 15.77 C 9.44 15.77 9.6 15.6 9.6 15.4 L 9.6 2.39 L 11.09 2.39 L 11.09 15.4 C 11.09 15.6 11.25 15.77 11.45 15.77 L 12.57 15.77 C 12.77 15.77 12.94 15.6 12.94 15.4 L 12.94 2.39 L 14.86 2.39 C 15.06 2.39 15.23 2.23 15.23 2.02 L 15.23 2.02 Z M 15.23 2.02" />
    <path fill="#858d9c" fill-rule="evenodd" d="M 20.41 10.76 L 16.2 7.04 C 16.03 6.89 15.78 6.85 15.57 6.95 C 15.36 7.04 15.23 7.25 15.23 7.48 L 15.23 14.92 C 15.23 15.15 15.36 15.36 15.57 15.45 C 15.65 15.49 15.73 15.5 15.81 15.5 C 15.95 15.5 16.09 15.45 16.2 15.36 L 20.41 11.65 C 20.54 11.54 20.61 11.38 20.61 11.21 C 20.61 11.04 20.54 10.88 20.41 10.76 L 20.41 10.76 Z M 20.41 10.76" />
</svg>