<!-- Generator: Avocode 2.1.0 - http://avocode.com -->
<svg height="21" width="19" xmlns:xlink="http://www.w3.org/1999/xlink" xmlns="http://www.w3.org/2000/svg" viewBox="0 0 19 21">
    <path fill="#858d9c" fill-rule="evenodd" d="M 16.74 0.3 C 16.69 0.28 16.64 0.27 16.58 0.27 C 16.39 0.27 16.2 0.4 16.14 0.58 L 14.12 5.48 C 14.01 5.47 13.9 5.46 13.79 5.45 C 13.68 5.44 13.57 5.44 13.46 5.43 C 11.74 5.39 9.9 6.01 8.55 7.49 L 12.43 8.23 L 12.74 8.29 L 13.05 8.35 L 14.31 8.59 L 14.94 8.71 L 18.4 9.37 C 18.4 9.23 18.38 9.1 18.37 8.97 C 18.18 7.63 17.23 6.59 15.95 6 C 15.85 5.95 15.76 5.91 15.66 5.87 C 15.56 5.83 15.46 5.8 15.36 5.76 L 17.33 1 C 17.42 0.77 17.29 0.49 17.04 0.41 L 16.74 0.3 Z M 16.74 0.3" />
    <path fill="#858d9c" fill-rule="evenodd" d="M 12.58 9.52 L 7.72 8.6 C 5.94 11.4 5.29 14.88 3.7 16.65 C 3.1 17.3 1.9 18.92 0 19.24 L 10.36 20.48 L 13.2 16.33 L 11.94 20.67 L 14.67 21 C 14.67 21 17.88 14.77 18.35 10.63 L 14.23 9.84 L 12.58 9.52 Z M 12.58 9.52" />
</svg>