<?xml version="1.0" encoding="utf-8"?>
<!-- Generated by IcoMoon.io -->
<!DOCTYPE svg PUBLIC "-//W3C//DTD SVG 1.1//EN" "http://www.w3.org/Graphics/SVG/1.1/DTD/svg11.dtd">
<svg version="1.1" xmlns="http://www.w3.org/2000/svg" xmlns:xlink="http://www.w3.org/1999/xlink" width="43" height="32" viewBox="0 0 43 32">
<path fill="#444444" d="M4.267 17.067h23.467v6.4h-23.467v-6.4z"></path>
<path fill="#444444" d="M35.307 20.267l7.104-4.16c0.128-0.085 0.192-0.149 0.192-0.256 0-0.085-0.064-0.171-0.192-0.235l-0.896-0.533c-0.128-0.064-0.256-0.107-0.405-0.107-0.171 0-0.299 0.043-0.427 0.107l-8.427 4.949c-0.128 0.064-0.192 0.149-0.192 0.235s0.064 0.171 0.192 0.235l8.427 4.949c0.128 0.064 0.256 0.107 0.427 0.107 0.149 0 0.277-0.043 0.405-0.107l0.896-0.533c0.128-0.064 0.192-0.149 0.192-0.235 0-0.107-0.064-0.171-0.192-0.256l-7.104-4.16z"></path>
<path fill="#444444" d="M0 0h23.467v6.4h-23.467v-6.4z"></path>
<path fill="#444444" d="M0 8.533h23.467v6.4h-23.467v-6.4z"></path>
<path fill="#444444" d="M0 25.6h23.467v6.4h-23.467v-6.4z"></path>
</svg>
