<!-- Generator: Avocode 2.1.0 - http://avocode.com -->
<svg height="18" width="27" xmlns:xlink="http://www.w3.org/1999/xlink" xmlns="http://www.w3.org/2000/svg" viewBox="0 0 27 18">
    <path fill="#858d9c" fill-rule="evenodd" d="M 19.89 11.32 C 19.6 11.21 19.33 11.14 19.09 11.11 C 18.84 11.08 18.66 11.03 18.55 10.93 C 18.48 10.89 18.39 10.74 18.28 10.48 C 18.07 10.06 17.9 9.68 17.77 9.33 C 17.57 8.78 17.4 8.36 17.27 8.06 C 16.98 7.37 16.73 6.76 16.53 6.23 C 16.42 5.95 16.1 5.18 15.56 3.93 L 13.97 0.2 L 13.89 0.04 L 13.48 0.04 L 12.89 0.04 L 10.72 5.66 L 8.88 10.44 C 8.74 10.71 8.61 10.88 8.51 10.97 C 8.4 11.04 8.12 11.12 7.66 11.21 C 7.36 11.26 7.15 11.31 7.04 11.35 L 7.02 11.96 L 7.18 11.96 C 7.63 11.96 8.06 11.92 8.48 11.85 L 8.85 11.79 C 10.32 11.89 11.22 11.94 11.56 11.94 C 11.57 11.89 11.58 11.82 11.58 11.73 C 11.58 11.58 11.57 11.43 11.57 11.28 C 11.46 11.27 11.35 11.25 11.25 11.24 C 11.15 11.22 11.07 11.21 11.02 11.2 C 10.97 11.19 10.93 11.18 10.92 11.18 C 10.52 11.13 10.25 11.04 10.12 10.94 C 10.03 10.87 9.98 10.76 9.98 10.6 C 9.98 10.5 10.04 10.28 10.16 9.95 C 10.55 8.87 10.82 8.16 10.97 7.82 L 14.46 7.84 L 15.18 9.61 L 15.54 10.49 C 15.57 10.58 15.59 10.66 15.59 10.74 C 15.59 10.82 15.56 10.89 15.49 10.95 C 15.43 11 15.26 11.06 14.97 11.13 L 13.95 11.35 C 13.93 11.52 13.92 11.72 13.92 11.95 L 14.37 11.94 L 15.92 11.85 C 16.21 11.84 16.56 11.83 16.97 11.83 C 17.46 11.83 17.95 11.86 18.43 11.9 C 19.01 11.94 19.51 11.96 19.92 11.96 C 19.93 11.9 19.93 11.83 19.93 11.76 C 19.93 11.66 19.92 11.52 19.89 11.32 L 19.89 11.32 Z M 13.85 6.91 C 13.78 6.91 13.64 6.91 13.44 6.9 C 13.24 6.9 12.93 6.9 12.52 6.89 C 12.1 6.89 11.7 6.88 11.33 6.88 L 12.65 3.39 C 12.85 3.79 13.09 4.34 13.36 5.02 C 13.67 5.78 13.91 6.4 14.07 6.89 L 13.85 6.91 L 13.85 6.91 Z M 13.85 6.91" />
    <path fill="#d8d8d8" fill-rule="evenodd" d="M 0 15 L 27 15 L 27 18 L 0 18 L 0 15 Z M 0 15" />
</svg>