<!-- Generator: Avocode 2.1.0 - http://avocode.com -->
<svg height="16" width="18" xmlns:xlink="http://www.w3.org/1999/xlink" xmlns="http://www.w3.org/2000/svg" viewBox="0 0 18 16">
    <path fill="#858d9c" fill-rule="evenodd" d="M 1.92 6.08 C 1.39 6.08 0.93 6.27 0.56 6.64 C 0.19 7.01 0 7.47 0 8 C 0 8.53 0.19 8.99 0.56 9.36 C 0.93 9.73 1.39 9.92 1.92 9.92 C 2.45 9.92 2.91 9.73 3.28 9.36 C 3.66 8.99 3.84 8.53 3.84 8 C 3.84 7.47 3.66 7.01 3.28 6.64 C 2.91 6.27 2.45 6.08 1.92 6.08 L 1.92 6.08 Z M 1.92 6.08" />
    <path fill="#858d9c" fill-rule="evenodd" d="M 1.92 0.96 C 1.39 0.96 0.93 1.14 0.56 1.52 C 0.19 1.89 0 2.34 0 2.88 C 0 3.41 0.19 3.86 0.56 4.24 C 0.93 4.61 1.39 4.8 1.92 4.8 C 2.45 4.8 2.91 4.61 3.28 4.24 C 3.66 3.86 3.84 3.41 3.84 2.88 C 3.84 2.34 3.66 1.89 3.28 1.52 C 2.91 1.14 2.45 0.96 1.92 0.96 L 1.92 0.96 Z M 1.92 0.96" />
    <path fill="#858d9c" fill-rule="evenodd" d="M 1.92 11.2 C 1.39 11.2 0.93 11.39 0.56 11.76 C 0.19 12.14 0 12.59 0 13.12 C 0 13.66 0.19 14.11 0.56 14.48 C 0.93 14.86 1.39 15.04 1.92 15.04 C 2.45 15.04 2.91 14.86 3.28 14.48 C 3.66 14.11 3.84 13.66 3.84 13.12 C 3.84 12.59 3.66 12.14 3.28 11.76 C 2.91 11.39 2.45 11.2 1.92 11.2 L 1.92 11.2 Z M 1.92 11.2" />
    <path fill="#858d9c" fill-rule="evenodd" d="M 17.83 1.69 C 17.77 1.63 17.7 1.6 17.61 1.6 L 5.44 1.6 C 5.36 1.6 5.28 1.63 5.22 1.69 C 5.15 1.76 5.12 1.83 5.12 1.92 L 5.12 3.84 C 5.12 3.92 5.15 4 5.22 4.06 C 5.28 4.13 5.36 4.16 5.44 4.16 L 17.61 4.16 C 17.7 4.16 17.77 4.13 17.83 4.06 C 17.9 4 17.93 3.92 17.93 3.84 L 17.93 1.92 C 17.93 1.83 17.9 1.75 17.83 1.69 L 17.83 1.69 Z M 17.83 1.69" />
    <path fill="#858d9c" fill-rule="evenodd" d="M 17.61 6.72 L 5.44 6.72 C 5.36 6.72 5.28 6.75 5.22 6.81 C 5.15 6.88 5.12 6.95 5.12 7.04 L 5.12 8.96 C 5.12 9.05 5.15 9.12 5.22 9.19 C 5.28 9.25 5.36 9.28 5.44 9.28 L 17.61 9.28 C 17.7 9.28 17.77 9.25 17.83 9.19 C 17.9 9.12 17.93 9.05 17.93 8.96 L 17.93 7.04 C 17.93 6.95 17.9 6.88 17.83 6.81 C 17.77 6.75 17.7 6.72 17.61 6.72 L 17.61 6.72 Z M 17.61 6.72" />
    <path fill="#858d9c" fill-rule="evenodd" d="M 17.61 11.84 L 5.44 11.84 C 5.36 11.84 5.28 11.87 5.22 11.94 C 5.15 12 5.12 12.08 5.12 12.16 L 5.12 14.08 C 5.12 14.17 5.15 14.25 5.22 14.31 C 5.28 14.37 5.36 14.4 5.44 14.4 L 17.61 14.4 C 17.7 14.4 17.77 14.37 17.83 14.31 C 17.9 14.25 17.93 14.17 17.93 14.08 L 17.93 12.16 C 17.93 12.08 17.9 12 17.83 11.94 C 17.77 11.87 17.7 11.84 17.61 11.84 L 17.61 11.84 Z M 17.61 11.84" />
</svg>