<!-- Generator: Avocode 2.1.0 - http://avocode.com -->
<svg height="16" width="19" xmlns:xlink="http://www.w3.org/1999/xlink" xmlns="http://www.w3.org/2000/svg" viewBox="0 0 19 16">
    <path fill="#858d9c" fill-rule="evenodd" d="M 17.26 2.38 L 14.79 2.38 L 14.79 0.36 C 14.79 0.17 14.63 0.02 14.44 0.02 L 12.38 0.02 C 12.19 0.02 12.04 0.17 12.04 0.36 L 12.04 2.38 L 5.98 2.38 L 5.98 0.36 C 5.98 0.17 5.82 0.02 5.63 0.02 L 3.58 0.02 C 3.39 0.02 3.23 0.17 3.23 0.36 L 3.23 2.38 L 0.76 2.38 C 0.34 2.38 0 2.71 0 3.13 L 0 15.2 C 0 15.62 0.34 15.95 0.76 15.95 L 17.26 15.95 C 17.68 15.95 18.02 15.62 18.02 15.2 L 18.02 3.13 C 18.02 2.71 17.68 2.38 17.26 2.38 L 17.26 2.38 Z M 16.37 14.54 L 1.65 14.54 L 1.65 5.58 L 16.37 5.57 L 16.37 14.54 Z M 16.37 14.54" />
    <path fill="#858d9c" fill-rule="evenodd" d="M 7.83 9.09 C 7.85 9.17 7.9 9.23 7.98 9.27 C 8.05 9.3 8.14 9.29 8.21 9.26 L 8.7 8.99 L 8.7 13.13 C 8.7 13.28 8.82 13.39 8.96 13.39 L 10.21 13.39 C 10.36 13.39 10.48 13.28 10.48 13.13 L 10.48 7.18 C 10.48 7.04 10.36 6.92 10.21 6.92 L 9.25 6.92 C 9.2 6.92 9.16 6.93 9.12 6.95 L 7.68 7.71 C 7.57 7.77 7.52 7.89 7.55 8.01 L 7.83 9.09 Z M 7.83 9.09" />
</svg>