<!-- Generator: Avocode 2.1.0 - http://avocode.com -->
<svg height="20" width="19" xmlns:xlink="http://www.w3.org/1999/xlink" xmlns="http://www.w3.org/2000/svg" viewBox="0 0 19 20">
    <path fill="#858d9c" fill-rule="evenodd" d="M 13.24 17.43 L 13.24 18.39 L 1.53 18.39 L 1.53 1.59 L 13.24 1.59 L 13.24 6.78 C 13.79 6.98 14.3 7.27 14.77 7.64 L 14.77 0.59 C 14.77 0.29 14.52 0.04 14.22 0.04 L 0.55 0.04 C 0.24 0.04 0 0.29 0 0.59 L 0 19.38 C 0 19.69 0.24 19.94 0.55 19.94 L 14.22 19.94 C 14.52 19.94 14.77 19.69 14.77 19.38 L 14.77 18.8 L 13.37 17.38 C 13.32 17.4 13.28 17.42 13.24 17.43 L 13.24 17.43 Z M 13.24 17.43" />
    <path fill="#858d9c" fill-rule="evenodd" d="M 18.83 18.01 L 15.27 14.42 C 16.3 12.61 16.02 10.32 14.54 8.82 C 12.75 7.01 9.83 7.01 8.04 8.82 C 6.25 10.63 6.25 13.58 8.04 15.39 C 9.52 16.89 11.79 17.17 13.57 16.13 L 17.13 19.73 C 17.31 19.92 17.62 19.92 17.81 19.73 L 18.83 18.7 C 19.01 18.51 19.01 18.2 18.83 18.01 L 18.83 18.01 Z M 13.04 13.88 C 12.08 14.85 10.5 14.85 9.54 13.88 C 8.57 12.9 8.57 11.31 9.54 10.33 C 10.5 9.36 12.08 9.36 13.04 10.33 C 14.01 11.31 14.01 12.9 13.04 13.88 L 13.04 13.88 Z M 13.04 13.88" />
</svg>