<!-- Generator: Avocode 2.1.0 - http://avocode.com -->
<svg height="14" width="19" xmlns:xlink="http://www.w3.org/1999/xlink" xmlns="http://www.w3.org/2000/svg" viewBox="0 0 19 14">
    <path fill="#858d9c" fill-rule="evenodd" d="M 13.85 1.13 C 13.85 1.12 13.86 1.09 13.86 1.04 C 13.86 0.92 13.8 0.83 13.69 0.76 C 13.67 0.74 13.6 0.7 13.48 0.64 C 13.36 0.57 13.25 0.51 13.15 0.45 C 13.04 0.38 12.92 0.32 12.8 0.25 C 12.67 0.19 12.56 0.14 12.47 0.09 C 12.38 0.05 12.31 0.03 12.28 0.03 C 12.15 0.03 12.05 0.09 11.98 0.2 L 11.41 1.2 C 10.77 1.09 10.13 1.03 9.5 1.03 C 7.6 1.03 5.85 1.5 4.24 2.44 C 2.64 3.38 1.29 4.66 0.21 6.28 C 0.07 6.5 0 6.74 0 7 C 0 7.26 0.07 7.5 0.21 7.72 C 0.83 8.66 1.57 9.51 2.42 10.26 C 3.27 11 4.21 11.6 5.22 12.05 C 4.91 12.57 4.75 12.87 4.75 12.95 C 4.75 13.08 4.81 13.17 4.92 13.24 C 5.78 13.73 6.26 13.97 6.34 13.97 C 6.47 13.97 6.57 13.91 6.64 13.8 L 7.16 12.88 C 7.91 11.57 9.02 9.61 10.51 7 C 11.99 4.39 13.1 2.43 13.85 1.13 L 13.85 1.13 Z M 5.88 10.89 C 4.05 10.08 2.54 8.78 1.36 7 C 2.43 5.37 3.78 4.15 5.4 3.34 C 4.97 4.06 4.75 4.84 4.75 5.67 C 4.75 6.41 4.92 7.11 5.27 7.78 C 5.62 8.44 6.1 8.99 6.71 9.43 L 5.88 10.89 L 5.88 10.89 Z M 9.86 3.37 C 9.76 3.47 9.64 3.52 9.5 3.52 C 8.89 3.52 8.37 3.73 7.94 4.15 C 7.51 4.57 7.29 5.08 7.29 5.67 C 7.29 5.81 7.24 5.93 7.15 6.03 C 7.05 6.12 6.93 6.17 6.79 6.17 C 6.64 6.17 6.52 6.12 6.42 6.03 C 6.33 5.93 6.28 5.81 6.28 5.67 C 6.28 4.81 6.59 4.07 7.23 3.45 C 7.86 2.83 8.62 2.52 9.5 2.52 C 9.64 2.52 9.76 2.57 9.86 2.67 C 9.96 2.76 10.01 2.88 10.01 3.02 C 10.01 3.16 9.96 3.27 9.86 3.37 L 9.86 3.37 Z M 9.86 3.37" />
    <path fill="#858d9c" fill-rule="evenodd" d="M 18.79 6.28 C 18.38 5.63 17.87 4.99 17.26 4.38 C 16.64 3.76 15.99 3.23 15.32 2.79 L 14.65 3.95 C 15.83 4.75 16.83 5.76 17.64 7 C 16.79 8.3 15.72 9.36 14.45 10.18 C 13.17 11.01 11.78 11.48 10.28 11.6 L 9.5 12.97 C 11.07 12.97 12.55 12.64 13.95 11.99 C 15.34 11.33 16.57 10.41 17.63 9.22 C 18.13 8.66 18.51 8.16 18.79 7.72 C 18.93 7.48 19 7.24 19 7 C 19 6.76 18.93 6.52 18.79 6.28 L 18.79 6.28 Z M 18.79 6.28" />
</svg>