<!-- Generator: Avocode 2.1.0 - http://avocode.com -->
<svg height="19" width="17" xmlns:xlink="http://www.w3.org/1999/xlink" xmlns="http://www.w3.org/2000/svg" viewBox="0 0 17 19">
    <path fill="#858d9c" fill-rule="evenodd" d="M 16.73 10.98 C 16.56 10.78 16.32 10.67 16.06 10.67 L 13.2 10.67 C 12.71 10.67 12.32 11.06 12.32 11.56 C 12.32 12.05 12.71 12.45 13.2 12.45 L 14.94 12.45 C 14.14 14.93 11.95 16.77 9.36 17.12 L 9.36 6.39 C 10.73 6 11.72 4.75 11.72 3.26 C 11.72 1.46 10.27 0 8.47 0 C 6.68 0 5.22 1.46 5.22 3.26 C 5.22 4.75 6.22 6 7.59 6.39 L 7.59 17.12 C 5 16.77 2.81 14.93 2.01 12.45 L 3.74 12.45 C 4.23 12.45 4.63 12.05 4.63 11.56 C 4.63 11.06 4.23 10.67 3.74 10.67 L 0.89 10.67 C 0.63 10.67 0.38 10.78 0.21 10.98 C 0.04 11.17 -0.03 11.43 0.01 11.69 C 0.65 15.84 4.29 18.96 8.47 18.96 C 12.65 18.96 16.29 15.84 16.94 11.69 C 16.98 11.43 16.9 11.17 16.73 10.98 L 16.73 10.98 Z M 6.99 3.26 C 6.99 2.44 7.66 1.78 8.47 1.78 C 9.29 1.78 9.95 2.44 9.95 3.26 C 9.95 4.08 9.29 4.74 8.47 4.74 C 7.66 4.74 6.99 4.08 6.99 3.26 L 6.99 3.26 Z M 6.99 3.26" />
</svg>