<?xml version="1.0" encoding="utf-8"?>
<!-- Generated by IcoMoon.io -->
<!DOCTYPE svg PUBLIC "-//W3C//DTD SVG 1.1//EN" "http://www.w3.org/Graphics/SVG/1.1/DTD/svg11.dtd">
<svg version="1.1" xmlns="http://www.w3.org/2000/svg" xmlns:xlink="http://www.w3.org/1999/xlink" width="28" height="28" viewBox="0 0 28 28">
<path fill="#444444" d="M14 13q0-0.406 0.297-0.703t0.703-0.297 0.703 0.297 0.297 0.703-0.297 0.703-0.703 0.297-0.703-0.297-0.297-0.703zM15 8.313l6.219-7.922q0.313-0.438 0.875-0.391 0.547 0.078 0.797 0.547l1 2q0.109 0.203 0.109 0.453 0 0.266-0.125 0.484l-6.047 10.781 1.031 1.719q0.063 0.125 0.078 0.187 0.766-0.219 1.516-0.156 1.203 0.109 2.305 0.875t1.93 2.063q1.313 2.063 1.313 4.328 0 2.125-1.219 3.469-1.313 1.406-3.234 1.234-1.188-0.109-2.297-0.875t-1.937-2.047q-1.313-2.063-1.313-4.344 0-1.297 0.484-2.359-0.203-0.141-0.344-0.344l-1.141-1.906-1.141 1.906q-0.141 0.203-0.344 0.344 0.484 1.062 0.484 2.359 0 2.281-1.313 4.344-0.828 1.281-1.937 2.047t-2.297 0.875q-0.922 0.078-1.766-0.242t-1.453-0.992q-1.234-1.328-1.234-3.469 0-2.266 1.313-4.328 0.812-1.297 1.922-2.063t2.312-0.875q0.75-0.063 1.516 0.156 0.016-0.063 0.078-0.187l1.031-1.719-6.047-10.781q-0.125-0.219-0.125-0.484 0-0.25 0.109-0.453l1-2q0.25-0.469 0.797-0.547 0.562-0.047 0.875 0.391zM10.938 18.953q-0.656-0.719-1.687-0.328t-1.828 1.656q-0.922 1.437-0.922 3 0 1.156 0.562 1.766 0.656 0.719 1.687 0.328t1.828-1.656q0.922-1.437 0.922-3 0-1.156-0.562-1.766zM22.578 20.281q-0.797-1.266-1.828-1.656t-1.687 0.328q-0.562 0.609-0.562 1.766 0 1.563 0.922 3 0.797 1.266 1.828 1.656t1.687-0.328q0.562-0.609 0.562-1.766 0-1.563-0.922-3zM13 17.5l0.906-1.5h-0.172q-0.562 0-0.875-0.516l-0.125-0.219-0.734 1.234 0.406 0.406q0.047 0.047 0.172 0.156t0.187 0.187q0.031 0.031 0.055 0.063t0.039 0.047zM16.5 14l0.5-1.5-9-11.5-1 2 6.734 12h1.766l1.5 2.5 0.125-0.141q0.031-0.031 0.094-0.109 0.063-0.063 0.187-0.172t0.187-0.172l0.406-0.406zM23 3l-1-2-6.375 8.125 2.156 2.766q0.047 0.031 0.109 0.203z"></path>
</svg>
