<!-- Generator: Avocode 2.1.0 - http://avocode.com -->
<svg height="8" width="10" xmlns:xlink="http://www.w3.org/1999/xlink" xmlns="http://www.w3.org/2000/svg" viewBox="0 0 10 8">
    <path fill="#858d9c" fill-rule="evenodd" d="M 3.48 0.01 L 1.4 0.01 C 1.11 0.01 0.87 0.11 0.66 0.32 C 0.46 0.54 0.36 0.79 0.36 1.09 L 0.36 3.27 C 0.36 3.57 0.46 3.83 0.66 4.04 C 0.87 4.25 1.11 4.35 1.4 4.35 L 2.61 4.35 C 2.76 4.35 2.88 4.41 2.98 4.51 C 3.08 4.62 3.14 4.75 3.14 4.9 L 3.14 5.08 C 3.14 5.48 3 5.82 2.73 6.1 C 2.46 6.38 2.13 6.53 1.75 6.53 L 1.4 6.53 C 1.31 6.53 1.22 6.56 1.16 6.63 C 1.09 6.7 1.05 6.79 1.05 6.89 L 1.05 7.61 C 1.05 7.71 1.09 7.8 1.16 7.87 C 1.22 7.94 1.31 7.97 1.4 7.97 L 1.75 7.97 C 2.12 7.97 2.48 7.9 2.82 7.75 C 3.16 7.59 3.46 7.39 3.71 7.13 C 3.96 6.87 4.16 6.56 4.3 6.2 C 4.45 5.84 4.52 5.47 4.52 5.08 L 4.52 1.09 C 4.52 0.79 4.42 0.54 4.22 0.32 C 4.02 0.11 3.77 0.01 3.48 0.01 L 3.48 0.01 Z M 3.48 0.01" />
    <path fill="#858d9c" fill-rule="evenodd" d="M 9.08 0.32 C 8.87 0.11 8.63 0.01 8.34 0.01 L 6.26 0.01 C 5.97 0.01 5.72 0.11 5.52 0.32 C 5.32 0.54 5.22 0.79 5.22 1.09 L 5.22 3.27 C 5.22 3.57 5.32 3.83 5.52 4.04 C 5.72 4.25 5.97 4.35 6.26 4.35 L 7.47 4.35 C 7.62 4.35 7.74 4.41 7.84 4.51 C 7.94 4.62 7.99 4.75 7.99 4.9 L 7.99 5.08 C 7.99 5.48 7.86 5.82 7.59 6.1 C 7.32 6.38 6.99 6.53 6.6 6.53 L 6.26 6.53 C 6.16 6.53 6.08 6.56 6.01 6.63 C 5.95 6.7 5.91 6.79 5.91 6.89 L 5.91 7.61 C 5.91 7.71 5.95 7.8 6.01 7.87 C 6.08 7.94 6.16 7.97 6.26 7.97 L 6.6 7.97 C 6.98 7.97 7.34 7.9 7.68 7.75 C 8.02 7.59 8.32 7.39 8.57 7.13 C 8.82 6.87 9.01 6.56 9.16 6.2 C 9.31 5.84 9.38 5.47 9.38 5.08 L 9.38 1.09 C 9.38 0.79 9.28 0.54 9.08 0.32 L 9.08 0.32 Z M 9.08 0.32" />
</svg>