<!-- Generator: Avocode 2.1.0 - http://avocode.com -->
<svg height="17" width="21" xmlns:xlink="http://www.w3.org/1999/xlink" xmlns="http://www.w3.org/2000/svg" viewBox="0 0 21 17">
    <path fill="#858d9c" fill-rule="evenodd" d="M 20.13 13.62 L 0.37 13.62 C 0.27 13.62 0.18 13.66 0.11 13.73 C 0.04 13.8 0 13.89 0 13.99 L 0 16.18 C 0 16.28 0.04 16.37 0.11 16.44 C 0.18 16.51 0.27 16.55 0.37 16.55 L 20.13 16.55 C 20.22 16.55 20.31 16.51 20.38 16.44 C 20.46 16.37 20.49 16.28 20.49 16.18 L 20.49 13.99 C 20.49 13.89 20.46 13.8 20.38 13.73 C 20.31 13.66 20.22 13.62 20.13 13.62 L 20.13 13.62 Z M 20.13 13.62" />
    <path fill="#858d9c" fill-rule="evenodd" d="M 4.03 12.16 C 4.12 12.16 4.21 12.12 4.28 12.05 C 4.35 11.98 4.39 11.89 4.39 11.79 L 4.39 5.21 C 4.39 5.11 4.35 5.02 4.28 4.95 C 4.21 4.88 4.12 4.84 4.03 4.84 C 3.92 4.84 3.83 4.88 3.76 4.94 L 0.47 8.24 C 0.4 8.31 0.37 8.39 0.37 8.5 C 0.37 8.61 0.4 8.69 0.47 8.76 L 3.76 12.06 C 3.83 12.12 3.92 12.16 4.03 12.16 L 4.03 12.16 Z M 4.03 12.16" />
    <path fill="#858d9c" fill-rule="evenodd" d="M 20.13 4.84 L 7.68 4.84 C 7.59 4.84 7.5 4.88 7.43 4.95 C 7.35 5.02 7.32 5.11 7.32 5.21 L 7.32 7.4 C 7.32 7.5 7.35 7.59 7.43 7.66 C 7.5 7.73 7.59 7.77 7.68 7.77 L 20.13 7.77 C 20.22 7.77 20.31 7.73 20.38 7.66 C 20.46 7.59 20.49 7.5 20.49 7.4 L 20.49 5.21 C 20.49 5.11 20.46 5.02 20.38 4.95 C 20.31 4.88 20.22 4.84 20.13 4.84 L 20.13 4.84 Z M 20.13 4.84" />
    <path fill="#858d9c" fill-rule="evenodd" d="M 20.13 9.23 L 7.68 9.23 C 7.59 9.23 7.5 9.27 7.43 9.34 C 7.35 9.41 7.32 9.5 7.32 9.6 L 7.32 11.79 C 7.32 11.89 7.35 11.98 7.43 12.05 C 7.5 12.12 7.59 12.16 7.68 12.16 L 20.13 12.16 C 20.22 12.16 20.31 12.12 20.38 12.05 C 20.46 11.98 20.49 11.89 20.49 11.79 L 20.49 9.6 C 20.49 9.5 20.46 9.41 20.38 9.34 C 20.31 9.27 20.22 9.23 20.13 9.23 L 20.13 9.23 Z M 20.13 9.23" />
    <path fill="#858d9c" fill-rule="evenodd" d="M 20.38 0.56 C 20.31 0.49 20.22 0.45 20.13 0.45 L 0.37 0.45 C 0.27 0.45 0.18 0.49 0.11 0.56 C 0.04 0.63 0 0.72 0 0.82 L 0 3.01 C 0 3.11 0.04 3.2 0.11 3.27 C 0.18 3.34 0.27 3.38 0.37 3.38 L 20.13 3.38 C 20.22 3.38 20.31 3.34 20.38 3.27 C 20.46 3.2 20.49 3.11 20.49 3.01 L 20.49 0.82 C 20.49 0.72 20.46 0.63 20.38 0.56 L 20.38 0.56 Z M 20.38 0.56" />
</svg>