<!-- Generator: Avocode 2.1.0 - http://avocode.com -->
<svg height="15" width="15" xmlns:xlink="http://www.w3.org/1999/xlink" xmlns="http://www.w3.org/2000/svg" viewBox="0 0 15 15">
    <path fill="#858d9c" fill-rule="evenodd" d="M 14.76 1.92 L 14.76 0.37 C 14.76 0.18 14.6 0.02 14.41 0.02 L 5.59 0.02 C 3.8 0.02 2.46 0.4 1.51 1.18 C 0.51 1.99 0 3.14 0 4.6 C 0 6.21 0.49 7.4 1.5 8.24 C 2.51 9.08 3.97 9.5 5.85 9.5 L 7.48 9.5 L 7.48 14.61 C 7.48 14.81 7.64 14.96 7.84 14.96 L 8.95 14.96 C 9.15 14.96 9.31 14.81 9.31 14.61 L 9.31 2.27 L 10.75 2.27 L 10.75 14.61 C 10.75 14.81 10.91 14.96 11.11 14.96 L 12.19 14.96 C 12.39 14.96 12.55 14.81 12.55 14.61 L 12.55 2.27 L 14.41 2.27 C 14.6 2.27 14.76 2.12 14.76 1.92 L 14.76 1.92 Z M 14.76 1.92" />
</svg>