<!-- Generator: Avocode 2.1.0 - http://avocode.com -->
<svg height="19" width="18" xmlns:xlink="http://www.w3.org/1999/xlink" xmlns="http://www.w3.org/2000/svg" viewBox="0 0 18 19">
    <path fill="#858d9c" fill-rule="evenodd" d="M 16.74 4.73 C 15.94 3.36 14.86 2.28 13.49 1.48 C 12.12 0.68 10.62 0.28 9 0.28 C 7.38 0.28 5.88 0.68 4.51 1.48 C 3.14 2.28 2.06 3.36 1.26 4.73 C 0.46 6.1 0.06 7.6 0.06 9.22 C 0.06 10.84 0.46 12.34 1.26 13.71 C 2.06 15.08 3.14 16.16 4.51 16.96 C 5.88 17.76 7.38 18.16 9 18.16 C 10.62 18.16 12.12 17.76 13.49 16.96 C 14.86 16.16 15.94 15.08 16.74 13.71 C 17.54 12.34 17.94 10.84 17.94 9.22 C 17.94 7.6 17.54 6.1 16.74 4.73 L 16.74 4.73 Z M 15.86 12.11 C 15.46 13.03 14.93 13.82 14.27 14.49 C 13.6 15.15 12.81 15.68 11.89 16.08 C 10.97 16.47 10.01 16.67 9 16.67 C 7.99 16.67 7.03 16.47 6.11 16.08 C 5.19 15.68 4.4 15.15 3.73 14.49 C 3.07 13.82 2.54 13.03 2.14 12.11 C 1.75 11.19 1.55 10.23 1.55 9.22 C 1.55 8.21 1.75 7.25 2.14 6.33 C 2.54 5.41 3.07 4.62 3.73 3.95 C 4.4 3.29 5.19 2.76 6.11 2.36 C 7.03 1.97 7.99 1.77 9 1.77 C 10.01 1.77 10.97 1.97 11.89 2.36 C 12.81 2.76 13.6 3.29 14.27 3.95 C 14.93 4.62 15.46 5.41 15.86 6.33 C 16.25 7.25 16.45 8.21 16.45 9.22 C 16.45 10.23 16.25 11.19 15.86 12.11 L 15.86 12.11 Z M 15.86 12.11" />
    <path fill="#858d9c" fill-rule="evenodd" d="M 12.78 10.37 C 12.59 10.31 12.4 10.33 12.21 10.42 C 12.03 10.51 11.9 10.66 11.84 10.86 C 11.65 11.48 11.29 11.98 10.76 12.37 C 10.24 12.75 9.65 12.94 9 12.94 C 8.35 12.94 7.76 12.75 7.24 12.37 C 6.71 11.98 6.35 11.48 6.16 10.86 C 6.1 10.66 5.98 10.51 5.79 10.42 C 5.61 10.33 5.42 10.31 5.23 10.37 C 5.03 10.43 4.88 10.56 4.79 10.74 C 4.69 10.92 4.68 11.11 4.74 11.3 C 5.03 12.24 5.56 13 6.35 13.57 C 7.13 14.15 8.01 14.43 9 14.43 C 9.99 14.43 10.87 14.15 11.65 13.57 C 12.44 13 12.97 12.24 13.26 11.3 C 13.32 11.11 13.31 10.92 13.21 10.74 C 13.12 10.56 12.98 10.43 12.78 10.37 L 12.78 10.37 Z M 12.78 10.37" />
    <path fill="#858d9c" fill-rule="evenodd" d="M 6.02 7.73 C 6.43 7.73 6.78 7.58 7.07 7.29 C 7.36 7 7.51 6.65 7.51 6.24 C 7.51 5.83 7.36 5.48 7.07 5.19 C 6.78 4.9 6.43 4.75 6.02 4.75 C 5.61 4.75 5.26 4.9 4.97 5.19 C 4.68 5.48 4.53 5.83 4.53 6.24 C 4.53 6.65 4.68 7 4.97 7.29 C 5.26 7.58 5.61 7.73 6.02 7.73 L 6.02 7.73 Z M 6.02 7.73" />
    <path fill="#858d9c" fill-rule="evenodd" d="M 11.98 4.75 C 11.57 4.75 11.22 4.9 10.93 5.19 C 10.64 5.48 10.49 5.83 10.49 6.24 C 10.49 6.65 10.64 7 10.93 7.29 C 11.22 7.58 11.57 7.73 11.98 7.73 C 12.39 7.73 12.74 7.58 13.03 7.29 C 13.32 7 13.47 6.65 13.47 6.24 C 13.47 5.83 13.32 5.48 13.03 5.19 C 12.74 4.9 12.39 4.75 11.98 4.75 L 11.98 4.75 Z M 11.98 4.75" />
</svg>