<!-- Generator: Avocode 2.1.0 - http://avocode.com -->
<svg height="14" width="14" xmlns:xlink="http://www.w3.org/1999/xlink" xmlns="http://www.w3.org/2000/svg" viewBox="0 0 14 14">
    <path fill="#858d9c" fill-rule="evenodd" d="M 7.13 0.75 C 3.54 0.75 0.63 3.65 0.63 7.23 C 0.63 10.8 3.54 13.7 7.13 13.7 C 10.71 13.7 13.62 10.8 13.62 7.23 C 13.62 3.65 10.71 0.75 7.13 0.75 L 7.13 0.75 Z M 7.13 12.69 C 4.1 12.69 1.65 10.25 1.65 7.23 C 1.65 4.21 4.1 1.76 7.13 1.76 C 10.15 1.76 12.6 4.21 12.6 7.23 C 12.6 10.25 10.15 12.69 7.13 12.69 L 7.13 12.69 Z M 7.13 12.69" />
</svg>