<?xml version="1.0" encoding="utf-8"?>
<!-- Generated by IcoMoon.io -->
<!DOCTYPE svg PUBLIC "-//W3C//DTD SVG 1.1//EN" "http://www.w3.org/Graphics/SVG/1.1/DTD/svg11.dtd">
<svg version="1.1" xmlns="http://www.w3.org/2000/svg" xmlns:xlink="http://www.w3.org/1999/xlink" width="26" height="32" viewBox="0 0 26 32">
<path fill="#444444" d="M1.525 13.715v-13.714h4.571v13.714h-4.571z"></path>
<path fill="#444444" d="M3.81 20.496l-2.971-5.074c-0.061-0.091-0.107-0.137-0.183-0.137-0.061 0-0.122 0.046-0.168 0.137l-0.381 0.64c-0.046 0.091-0.076 0.183-0.076 0.29 0 0.122 0.030 0.213 0.076 0.305l3.535 6.019c0.046 0.091 0.107 0.137 0.168 0.137s0.122-0.046 0.168-0.137l3.535-6.019c0.046-0.091 0.076-0.183 0.076-0.305 0-0.107-0.030-0.198-0.076-0.29l-0.381-0.64c-0.046-0.091-0.107-0.137-0.168-0.137-0.076 0-0.122 0.046-0.183 0.137l-2.971 5.074z"></path>
<path fill="#444444" d="M9.144 32.001v-16.762h4.571v16.762h-4.571z"></path>
<path fill="#444444" d="M15.239 32.001v-16.762h4.571v16.762h-4.571z"></path>
<path fill="#444444" d="M21.334 32.001v-16.762h4.571v16.762h-4.571z"></path>
</svg>
