<!-- Generator: Avocode 2.1.0 - http://avocode.com -->
<svg height="15" width="16" xmlns:xlink="http://www.w3.org/1999/xlink" xmlns="http://www.w3.org/2000/svg" viewBox="0 0 16 15">
    <path fill="#858d9c" fill-rule="evenodd" d="M 15.74 0.95 C 15.69 0.43 15.28 0 14.77 0 L 0.99 0 C 0.47 0 0.06 0.43 0.01 0.95 L 0 0.95 L 0 14 C 0 14.55 0.44 15 0.99 15 L 14.77 15 C 15.31 15 15.76 14.55 15.76 14 L 15.76 0.95 L 15.74 0.95 Z M 0.99 11 L 4.92 11 L 4.92 14 L 0.99 14 L 0.99 11 Z M 0.99 7 L 4.92 7 L 4.92 10.08 L 0.99 10.08 L 0.99 7 Z M 0.99 3 L 4.92 3 L 4.92 6 L 0.99 6 L 0.99 3 Z M 5.91 3 L 9.85 3 L 9.85 6 L 5.91 6 L 5.91 3 Z M 10.83 3 L 14.77 3 L 14.77 6 L 10.83 6 L 10.83 3 Z M 10.83 3" />
</svg>