<!-- Generator: Avocode 2.1.0 - http://avocode.com -->
<svg height="16" width="17" xmlns:xlink="http://www.w3.org/1999/xlink" xmlns="http://www.w3.org/2000/svg" viewBox="0 0 17 16">
    <path fill="#858d9c" fill-rule="evenodd" d="M 4.18 12.8 L 4.18 16 L 12.56 16 L 12.56 10.67 L 4.18 10.67 L 4.18 12.8 Z M 5.23 11.73 L 11.51 11.73 L 11.51 12.8 L 5.23 12.8 L 5.23 11.73 Z M 5.23 13.86 L 11.51 13.86 L 11.51 14.93 L 5.23 14.93 L 5.23 13.86 Z M 5.23 13.86" />
    <path fill="#858d9c" fill-rule="evenodd" d="M 12.56 3.2 L 12.56 0 L 4.18 0 L 4.18 5.33 L 12.56 5.33 L 12.56 3.2 Z M 12.56 3.2" />
    <path fill="#858d9c" fill-rule="evenodd" d="M 14.64 3.2 L 13.6 3.2 L 13.6 6.4 L 3.14 6.4 L 3.14 3.2 L 2.09 3.2 C 1.05 3.2 0 4.27 0 5.33 L 0 10.67 C 0 11.73 1.05 12.8 2.09 12.8 L 3.14 12.8 L 3.14 9.6 L 13.6 9.6 L 13.6 12.8 L 14.64 12.8 C 15.69 12.8 16.74 11.73 16.74 10.67 L 16.74 5.33 C 16.74 4.27 15.69 3.2 14.64 3.2 L 14.64 3.2 Z M 14.64 3.2" />
</svg>