<!-- Generator: Avocode 2.1.0 - http://avocode.com -->
<svg height="17" width="17" xmlns:xlink="http://www.w3.org/1999/xlink" xmlns="http://www.w3.org/2000/svg" viewBox="0 0 17 17">
    <path fill="#858d9c" fill-rule="evenodd" d="M 16.52 4.88 C 16.38 4.53 16.2 4.26 16 4.06 L 12.96 1.02 C 12.76 0.81 12.48 0.64 12.13 0.49 C 11.79 0.35 11.47 0.28 11.18 0.28 L 1.1 0.28 C 0.81 0.28 0.56 0.38 0.36 0.58 C 0.16 0.78 0.06 1.03 0.06 1.32 L 0.06 15.92 C 0.06 16.21 0.16 16.45 0.36 16.66 C 0.56 16.86 0.81 16.96 1.1 16.96 L 15.7 16.96 C 15.99 16.96 16.23 16.86 16.44 16.66 C 16.64 16.45 16.74 16.21 16.74 15.92 L 16.74 5.84 C 16.74 5.55 16.67 5.23 16.52 4.88 L 16.52 4.88 Z M 7.01 2.01 C 7.01 1.92 7.04 1.84 7.11 1.77 C 7.18 1.7 7.26 1.67 7.36 1.67 L 9.44 1.67 C 9.54 1.67 9.62 1.7 9.69 1.77 C 9.75 1.84 9.79 1.92 9.79 2.01 L 9.79 5.49 C 9.79 5.58 9.75 5.67 9.69 5.74 C 9.62 5.8 9.54 5.84 9.44 5.84 L 7.36 5.84 C 7.26 5.84 7.18 5.8 7.11 5.74 C 7.04 5.67 7.01 5.58 7.01 5.49 L 7.01 2.01 L 7.01 2.01 Z M 12.57 15.57 L 4.23 15.57 L 4.23 11.4 L 12.57 11.4 L 12.57 15.57 L 12.57 15.57 Z M 15.35 15.57 L 13.96 15.57 L 13.96 15.57 L 13.96 11.05 C 13.96 10.76 13.86 10.52 13.66 10.31 C 13.45 10.11 13.21 10.01 12.92 10.01 L 3.88 10.01 C 3.59 10.01 3.34 10.11 3.14 10.31 C 2.94 10.52 2.84 10.76 2.84 11.05 L 2.84 15.57 L 1.45 15.57 L 1.45 1.67 L 2.84 1.67 L 2.84 6.19 C 2.84 6.48 2.94 6.72 3.14 6.92 C 3.34 7.13 3.59 7.23 3.88 7.23 L 10.14 7.23 C 10.43 7.23 10.67 7.13 10.88 6.92 C 11.08 6.72 11.18 6.48 11.18 6.19 L 11.18 1.67 C 11.29 1.67 11.43 1.7 11.6 1.78 C 11.78 1.85 11.9 1.92 11.97 1.99 L 15.02 5.05 C 15.1 5.12 15.17 5.24 15.24 5.42 C 15.31 5.6 15.35 5.74 15.35 5.84 L 15.35 15.57 L 15.35 15.57 Z M 15.35 15.57" />
</svg>