<!-- Generator: Avocode 2.1.0 - http://avocode.com -->
<svg height="16" width="16" xmlns:xlink="http://www.w3.org/1999/xlink" xmlns="http://www.w3.org/2000/svg" viewBox="0 0 16 16">
    <path fill="#858d9c" fill-rule="evenodd" d="M 3.62 10.67 C 3.68 10.62 3.71 10.54 3.71 10.45 C 3.71 10.36 3.68 10.29 3.62 10.23 C 3.56 10.18 3.49 10.15 3.4 10.15 L 0.33 10.15 C 0.24 10.15 0.17 10.18 0.11 10.23 C 0.05 10.29 0.03 10.36 0.03 10.45 C 0.03 10.54 0.05 10.62 0.11 10.67 C 0.17 10.73 0.24 10.76 0.33 10.76 L 3.4 10.76 C 3.49 10.76 3.56 10.73 3.62 10.67 L 3.62 10.67 Z M 3.62 10.67" />
    <path fill="#858d9c" fill-rule="evenodd" d="M 4.01 11.68 C 3.93 11.68 3.86 11.71 3.79 11.77 L 1.34 14.22 C 1.28 14.28 1.25 14.36 1.25 14.44 C 1.25 14.52 1.28 14.6 1.34 14.66 C 1.41 14.72 1.48 14.75 1.56 14.75 C 1.64 14.75 1.72 14.72 1.78 14.66 L 4.23 12.21 C 4.29 12.14 4.32 12.07 4.32 11.99 C 4.32 11.9 4.29 11.83 4.23 11.77 C 4.17 11.71 4.1 11.68 4.01 11.68 L 4.01 11.68 Z M 4.01 11.68" />
    <path fill="#858d9c" fill-rule="evenodd" d="M 11.99 4.32 C 12.06 4.32 12.14 4.29 12.21 4.23 L 14.66 1.78 C 14.72 1.72 14.75 1.64 14.75 1.56 C 14.75 1.48 14.72 1.4 14.66 1.34 C 14.6 1.28 14.52 1.25 14.44 1.25 C 14.36 1.25 14.28 1.28 14.22 1.34 L 11.77 3.79 C 11.71 3.86 11.68 3.93 11.68 4.01 C 11.68 4.1 11.71 4.17 11.77 4.23 C 11.84 4.29 11.91 4.32 11.99 4.32 L 11.99 4.32 Z M 11.99 4.32" />
    <path fill="#858d9c" fill-rule="evenodd" d="M 11.8 6.5 C 11.66 6.37 11.48 6.24 11.26 6.1 L 11.09 8.39 L 13.71 11.03 C 13.89 11.21 13.98 11.43 13.98 11.68 C 13.98 11.93 13.89 12.14 13.71 12.32 L 12.3 13.72 C 12.13 13.9 11.91 13.98 11.65 13.98 C 11.39 13.97 11.17 13.89 11 13.71 L 8.38 11.09 L 6.09 11.26 C 6.23 11.48 6.36 11.66 6.5 11.8 L 9.7 15.01 C 10.23 15.55 10.88 15.82 11.65 15.82 C 12.42 15.82 13.07 15.56 13.6 15.03 L 15.01 13.63 C 15.55 13.1 15.82 12.45 15.82 11.68 C 15.82 10.93 15.55 10.27 15.02 9.73 L 11.8 6.5 L 11.8 6.5 Z M 11.8 6.5" />
    <path fill="#858d9c" fill-rule="evenodd" d="M 15.89 5.33 C 15.83 5.27 15.76 5.24 15.67 5.24 L 12.6 5.24 C 12.51 5.24 12.44 5.27 12.38 5.33 C 12.32 5.38 12.29 5.46 12.29 5.55 C 12.29 5.64 12.32 5.71 12.38 5.77 C 12.44 5.82 12.51 5.85 12.6 5.85 L 15.67 5.85 C 15.76 5.85 15.83 5.82 15.89 5.77 C 15.95 5.71 15.97 5.64 15.97 5.55 C 15.97 5.46 15.95 5.38 15.89 5.33 L 15.89 5.33 Z M 15.89 5.33" />
    <path fill="#858d9c" fill-rule="evenodd" d="M 3.7 2.28 C 3.88 2.11 4.1 2.02 4.35 2.02 C 4.6 2.02 4.82 2.11 5 2.29 L 7.62 4.91 L 9.91 4.74 C 9.77 4.52 9.64 4.34 9.5 4.2 L 6.3 0.99 C 5.77 0.45 5.12 0.18 4.35 0.18 C 3.58 0.18 2.93 0.44 2.4 0.97 L 0.99 2.37 C 0.45 2.9 0.18 3.55 0.18 4.32 C 0.18 5.07 0.45 5.73 0.98 6.27 L 4.2 9.5 C 4.34 9.63 4.52 9.76 4.74 9.9 L 4.91 7.6 L 2.29 4.97 C 2.11 4.79 2.02 4.58 2.02 4.32 C 2.02 4.07 2.11 3.86 2.29 3.68 L 3.7 2.28 L 3.7 2.28 Z M 3.7 2.28" />
    <path fill="#858d9c" fill-rule="evenodd" d="M 5.55 12.29 C 5.46 12.29 5.38 12.32 5.33 12.38 C 5.27 12.44 5.24 12.51 5.24 12.6 L 5.24 15.67 C 5.24 15.76 5.27 15.83 5.33 15.89 C 5.38 15.95 5.46 15.97 5.55 15.97 C 5.64 15.97 5.71 15.95 5.77 15.89 C 5.82 15.83 5.85 15.76 5.85 15.67 L 5.85 12.6 C 5.85 12.51 5.82 12.44 5.77 12.38 C 5.71 12.32 5.64 12.29 5.55 12.29 L 5.55 12.29 Z M 5.55 12.29" />
</svg>