<!-- Generator: Avocode 2.1.0 - http://avocode.com -->
<svg height="20" width="15" xmlns:xlink="http://www.w3.org/1999/xlink" xmlns="http://www.w3.org/2000/svg" viewBox="0 0 15 20">
    <path fill="#858d9c" fill-rule="evenodd" d="M -1 11 L 10 11 L 10 14 L -1 14 L -1 11 Z M -1 11" />
    <path fill="#858d9c" fill-rule="evenodd" d="M 13.55 12.5 L 16.88 10.55 C 16.94 10.51 16.97 10.48 16.97 10.43 C 16.97 10.39 16.94 10.35 16.88 10.32 L 16.46 10.07 C 16.4 10.04 16.34 10.02 16.27 10.02 C 16.19 10.02 16.13 10.04 16.07 10.07 L 12.12 12.39 C 12.06 12.42 12.03 12.46 12.03 12.5 C 12.03 12.54 12.06 12.58 12.12 12.61 L 16.07 14.93 C 16.13 14.96 16.19 14.98 16.27 14.98 C 16.34 14.98 16.4 14.96 16.46 14.93 L 16.88 14.68 C 16.94 14.65 16.97 14.61 16.97 14.57 C 16.97 14.52 16.94 14.49 16.88 14.45 L 13.55 12.5 L 13.55 12.5 Z M 13.55 12.5" />
    <path fill="#858d9c" fill-rule="evenodd" d="M -3 3 L 8 3 L 8 6 L -3 6 L -3 3 Z M -3 3" />
    <path fill="#858d9c" fill-rule="evenodd" d="M -3 7 L 8 7 L 8 10 L -3 10 L -3 7 Z M -3 7" />
    <path fill="#858d9c" fill-rule="evenodd" d="M -3 15 L 8 15 L 8 18 L -3 18 L -3 15 Z M -3 15" />
</svg>