<!-- Generator: Avocode 2.1.0 - http://avocode.com -->
<svg height="16" width="16" xmlns:xlink="http://www.w3.org/1999/xlink" xmlns="http://www.w3.org/2000/svg" viewBox="0 0 16 16">
    <path fill="#858d9c" fill-rule="evenodd" d="M 14.88 4.01 C 14.17 2.79 13.21 1.83 11.99 1.12 C 10.77 0.41 9.44 0.05 8 0.05 C 6.56 0.05 5.23 0.41 4.01 1.12 C 2.79 1.83 1.83 2.79 1.12 4.01 C 0.41 5.23 0.05 6.56 0.05 8 C 0.05 9.44 0.41 10.77 1.12 11.99 C 1.83 13.21 2.79 14.17 4.01 14.88 C 5.23 15.59 6.56 15.95 8 15.95 C 9.44 15.95 10.77 15.59 11.99 14.88 C 13.21 14.17 14.17 13.21 14.88 11.99 C 15.59 10.77 15.95 9.44 15.95 8 C 15.95 6.56 15.59 5.23 14.88 4.01 L 14.88 4.01 Z M 12.87 10.82 C 12.37 11.69 11.69 12.37 10.82 12.87 C 9.96 13.38 9.02 13.63 8 13.63 C 6.98 13.63 6.04 13.38 5.18 12.87 C 4.31 12.37 3.63 11.69 3.13 10.82 C 2.62 9.96 2.37 9.02 2.37 8 C 2.37 6.98 2.62 6.04 3.13 5.18 C 3.63 4.31 4.31 3.63 5.18 3.13 C 6.04 2.62 6.98 2.37 8 2.37 C 9.02 2.37 9.96 2.62 10.82 3.13 C 11.69 3.63 12.37 4.31 12.87 5.18 C 13.38 6.04 13.63 6.98 13.63 8 C 13.63 9.02 13.38 9.96 12.87 10.82 L 12.87 10.82 Z M 12.87 10.82" />
    <path fill="#858d9c" fill-rule="evenodd" d="M 8.99 4.03 L 8.33 4.03 C 8.23 4.03 8.16 4.06 8.09 4.12 C 8.03 4.18 8 4.26 8 4.36 L 8 8 L 5.68 8 C 5.59 8 5.51 8.03 5.44 8.09 C 5.38 8.15 5.35 8.23 5.35 8.33 L 5.35 8.99 C 5.35 9.09 5.38 9.17 5.44 9.23 C 5.51 9.29 5.59 9.32 5.68 9.32 L 8.99 9.32 C 9.09 9.32 9.17 9.29 9.23 9.23 C 9.29 9.17 9.32 9.09 9.32 8.99 L 9.32 4.36 C 9.32 4.26 9.29 4.18 9.23 4.12 C 9.17 4.06 9.09 4.03 8.99 4.03 L 8.99 4.03 Z M 8.99 4.03" />
</svg>