<?xml version="1.0" encoding="utf-8"?>
<!-- Generated by IcoMoon.io -->
<!DOCTYPE svg PUBLIC "-//W3C//DTD SVG 1.1//EN" "http://www.w3.org/Graphics/SVG/1.1/DTD/svg11.dtd">
<svg version="1.1" xmlns="http://www.w3.org/2000/svg" xmlns:xlink="http://www.w3.org/1999/xlink" width="47" height="32" viewBox="0 0 47 32">
<path fill="#444444" d="M22.588 1.882h24.471v5.647h-24.471v-5.647z"></path>
<path fill="#444444" d="M14.212 4.706l6.268-3.671c0.113-0.075 0.169-0.132 0.169-0.226 0-0.075-0.056-0.151-0.169-0.207l-0.791-0.471c-0.113-0.056-0.226-0.094-0.358-0.094-0.151 0-0.264 0.038-0.376 0.094l-7.435 4.367c-0.113 0.056-0.169 0.132-0.169 0.207s0.056 0.151 0.169 0.207l7.435 4.367c0.113 0.056 0.226 0.094 0.376 0.094 0.132 0 0.245-0.038 0.358-0.094l0.791-0.471c0.113-0.056 0.169-0.132 0.169-0.207 0-0.094-0.056-0.151-0.169-0.226l-6.268-3.671z"></path>
<path fill="#444444" d="M0 11.294h20.706v5.647h-20.706v-5.647z"></path>
<path fill="#444444" d="M0 18.824h20.706v5.647h-20.706v-5.647z"></path>
<path fill="#444444" d="M0 26.353h20.706v5.647h-20.706v-5.647z"></path>
</svg>
