<!-- Generator: Avocode 2.1.0 - http://avocode.com -->
<svg height="16" width="19" xmlns:xlink="http://www.w3.org/1999/xlink" xmlns="http://www.w3.org/2000/svg" viewBox="0 0 19 16">
    <path fill="#858d9c" fill-rule="evenodd" d="M 14.57 10.38 C 14.43 10.33 14.31 10.35 14.2 10.46 L 13.53 11.13 C 13.47 11.19 13.44 11.27 13.44 11.36 L 13.44 12.68 C 13.44 13.14 13.27 13.53 12.95 13.86 C 12.62 14.19 12.22 14.35 11.76 14.35 L 3.06 14.35 C 2.6 14.35 2.2 14.19 1.87 13.86 C 1.55 13.53 1.38 13.14 1.38 12.68 L 1.38 3.97 C 1.38 3.51 1.55 3.11 1.87 2.79 C 2.2 2.46 2.6 2.29 3.06 2.29 L 11.76 2.29 C 11.92 2.29 12.07 2.31 12.23 2.36 C 12.36 2.4 12.47 2.37 12.57 2.27 L 13.08 1.76 C 13.17 1.68 13.2 1.57 13.18 1.46 C 13.16 1.34 13.09 1.26 12.99 1.22 C 12.61 1.04 12.2 0.95 11.76 0.95 L 3.06 0.95 C 2.23 0.95 1.52 1.25 0.93 1.84 C 0.34 2.43 0.04 3.14 0.04 3.97 L 0.04 12.68 C 0.04 13.51 0.34 14.22 0.93 14.81 C 1.52 15.4 2.23 15.69 3.06 15.69 L 11.76 15.69 C 12.59 15.69 13.3 15.4 13.89 14.81 C 14.48 14.22 14.78 13.51 14.78 12.68 L 14.78 10.69 C 14.78 10.54 14.71 10.44 14.57 10.38 L 14.57 10.38 Z M 14.57 10.38" />
    <path fill="#858d9c" fill-rule="evenodd" d="M 6.74 10 L 6.74 13.01 L 9.75 13.01 L 16.79 5.98 L 13.77 2.96 L 6.74 10 L 6.74 10 Z M 9.34 12.01 L 9.34 12.01 L 8.75 12.01 L 8.75 11 L 7.74 11 L 7.74 10.42 L 8.96 9.2 L 10.55 10.79 L 9.34 12.01 L 9.34 12.01 Z M 13.93 4.82 L 10.27 8.48 C 10.15 8.6 10.03 8.6 9.92 8.49 C 9.81 8.38 9.81 8.26 9.93 8.14 L 13.59 4.48 C 13.71 4.36 13.83 4.36 13.94 4.47 C 14.05 4.58 14.05 4.7 13.93 4.82 L 13.93 4.82 Z M 13.93 4.82" />
    <path fill="#858d9c" fill-rule="evenodd" d="M 18.42 2.92 L 16.83 1.33 C 16.63 1.14 16.4 1.04 16.12 1.04 C 15.84 1.04 15.6 1.14 15.41 1.33 L 14.44 2.29 L 17.46 5.31 L 18.42 4.34 C 18.61 4.15 18.71 3.91 18.71 3.63 C 18.71 3.35 18.61 3.12 18.42 2.92 L 18.42 2.92 Z M 18.42 2.92" />
</svg>