<!-- Generator: Avocode 2.1.0 - http://avocode.com -->
<svg height="19" width="15" xmlns:xlink="http://www.w3.org/1999/xlink" xmlns="http://www.w3.org/2000/svg" viewBox="0 0 15 19">
    <path fill="#858d9c" fill-rule="evenodd" d="M 14.56 5.95 C 14.41 5.58 14.23 5.29 14.02 5.08 L 10.46 1.53 C 10.25 1.31 9.96 1.13 9.6 0.98 C 9.23 0.83 8.9 0.75 8.59 0.75 L 1.3 0.75 C 1 0.75 0.74 0.86 0.53 1.07 C 0.32 1.28 0.21 1.54 0.21 1.85 L 0.21 17.15 C 0.21 17.46 0.32 17.72 0.53 17.93 C 0.74 18.14 1 18.25 1.3 18.25 L 13.7 18.25 C 14 18.25 14.26 18.14 14.47 17.93 C 14.68 17.72 14.79 17.46 14.79 17.15 L 14.79 6.95 C 14.79 6.64 14.71 6.31 14.56 5.95 L 14.56 5.95 Z M 8.96 2.3 C 9.18 2.38 9.33 2.46 9.43 2.55 L 12.99 6.12 C 13.08 6.21 13.16 6.36 13.24 6.58 L 8.96 6.58 L 8.96 2.3 L 8.96 2.3 Z M 13.33 16.79 L 1.67 16.79 L 1.67 2.21 L 7.5 2.21 L 7.5 6.95 C 7.5 7.25 7.61 7.51 7.82 7.72 C 8.03 7.94 8.29 8.04 8.59 8.04 L 13.33 8.04 L 13.33 16.79 L 13.33 16.79 Z M 13.33 16.79" />
    <path fill="#858d9c" fill-rule="evenodd" d="M 11.51 12.42 L 3.49 12.42 C 3.38 12.42 3.3 12.45 3.23 12.52 C 3.16 12.59 3.13 12.67 3.13 12.78 L 3.13 13.51 C 3.13 13.62 3.16 13.7 3.23 13.77 C 3.3 13.84 3.38 13.87 3.49 13.87 L 11.51 13.87 C 11.62 13.87 11.7 13.84 11.77 13.77 C 11.84 13.7 11.87 13.62 11.87 13.51 L 11.87 12.78 C 11.87 12.67 11.84 12.59 11.77 12.52 C 11.7 12.45 11.62 12.42 11.51 12.42 L 11.51 12.42 Z M 11.51 12.42" />
    <path fill="#858d9c" fill-rule="evenodd" d="M 3.23 9.6 C 3.16 9.67 3.13 9.76 3.13 9.86 L 3.13 10.59 C 3.13 10.7 3.16 10.79 3.23 10.86 C 3.3 10.92 3.38 10.96 3.49 10.96 L 11.51 10.96 C 11.62 10.96 11.7 10.92 11.77 10.86 C 11.84 10.79 11.87 10.7 11.87 10.59 L 11.87 9.86 C 11.87 9.76 11.84 9.67 11.77 9.6 C 11.7 9.53 11.62 9.5 11.51 9.5 L 3.49 9.5 C 3.38 9.5 3.3 9.53 3.23 9.6 L 3.23 9.6 Z M 3.23 9.6" />
</svg>