<!-- Generator: Avocode 2.1.0 - http://avocode.com -->
<svg height="16" width="21" xmlns:xlink="http://www.w3.org/1999/xlink" xmlns="http://www.w3.org/2000/svg" viewBox="0 0 21 16">
    <path fill="#858d9c" fill-rule="evenodd" d="M 15.23 2.02 L 15.23 0.39 C 15.23 0.19 15.06 0.02 14.86 0.02 L 5.76 0.02 C 3.92 0.02 2.54 0.42 1.56 1.24 C 0.52 2.09 0 3.31 0 4.85 C 0 6.54 0.51 7.79 1.55 8.68 C 2.59 9.56 4.09 10.01 6.03 10.01 L 7.71 10.01 L 7.71 15.4 C 7.71 15.6 7.88 15.77 8.08 15.77 L 9.23 15.77 C 9.44 15.77 9.6 15.6 9.6 15.4 L 9.6 2.39 L 11.09 2.39 L 11.09 15.4 C 11.09 15.6 11.25 15.77 11.45 15.77 L 12.57 15.77 C 12.77 15.77 12.94 15.6 12.94 15.4 L 12.94 2.39 L 14.86 2.39 C 15.06 2.39 15.23 2.23 15.23 2.02 L 15.23 2.02 Z M 15.23 2.02" />
    <path fill="#858d9c" fill-rule="evenodd" d="M 20.41 11.03 L 16.2 7.3 C 16.03 7.15 15.78 7.11 15.57 7.21 C 15.36 7.3 15.23 7.51 15.23 7.75 L 15.23 15.18 C 15.23 15.41 15.36 15.62 15.57 15.71 C 15.65 15.75 15.73 15.77 15.81 15.77 C 15.95 15.77 16.09 15.72 16.2 15.62 L 20.41 11.91 C 20.54 11.8 20.61 11.64 20.61 11.47 C 20.61 11.3 20.54 11.14 20.41 11.03 L 20.41 11.03 Z M 20.41 11.03" />
</svg>