<!-- Generator: Avocode 2.1.0 - http://avocode.com -->
<svg height="12" width="13" xmlns:xlink="http://www.w3.org/1999/xlink" xmlns="http://www.w3.org/2000/svg" viewBox="0 0 13 12">
    <path fill="#858d9c" fill-rule="evenodd" d="M 12.89 11.32 C 12.6 11.21 12.33 11.14 12.09 11.11 C 11.84 11.08 11.66 11.03 11.55 10.93 C 11.48 10.89 11.39 10.74 11.28 10.48 C 11.07 10.06 10.9 9.68 10.77 9.33 C 10.57 8.78 10.4 8.36 10.27 8.06 C 9.98 7.37 9.73 6.76 9.53 6.23 C 9.42 5.95 9.1 5.18 8.56 3.93 L 6.97 0.2 L 6.89 0.04 L 6.48 0.04 L 5.89 0.04 L 3.72 5.66 L 1.88 10.44 C 1.74 10.71 1.61 10.88 1.51 10.97 C 1.4 11.04 1.12 11.12 0.66 11.21 C 0.36 11.26 0.15 11.31 0.04 11.35 L 0.02 11.96 L 0.18 11.96 C 0.63 11.96 1.06 11.92 1.48 11.85 L 1.85 11.79 C 3.32 11.89 4.22 11.94 4.56 11.94 C 4.57 11.89 4.58 11.82 4.58 11.73 C 4.58 11.58 4.57 11.43 4.57 11.28 C 4.46 11.27 4.35 11.25 4.25 11.24 C 4.15 11.22 4.07 11.21 4.02 11.2 C 3.97 11.19 3.93 11.18 3.92 11.18 C 3.52 11.13 3.25 11.04 3.12 10.94 C 3.03 10.87 2.98 10.76 2.98 10.6 C 2.98 10.5 3.04 10.28 3.16 9.95 C 3.55 8.87 3.82 8.16 3.97 7.82 L 7.46 7.84 L 8.18 9.61 L 8.54 10.49 C 8.57 10.58 8.59 10.66 8.59 10.74 C 8.59 10.82 8.56 10.89 8.49 10.95 C 8.43 11 8.26 11.06 7.97 11.13 L 6.95 11.35 C 6.93 11.52 6.92 11.72 6.92 11.95 L 7.37 11.94 L 8.92 11.85 C 9.21 11.84 9.56 11.83 9.97 11.83 C 10.46 11.83 10.95 11.86 11.43 11.9 C 12.01 11.94 12.51 11.96 12.92 11.96 C 12.93 11.9 12.93 11.83 12.93 11.76 C 12.93 11.66 12.92 11.52 12.89 11.32 L 12.89 11.32 Z M 6.85 6.91 C 6.78 6.91 6.64 6.91 6.44 6.9 C 6.24 6.9 5.93 6.9 5.52 6.89 C 5.1 6.89 4.7 6.88 4.33 6.88 L 5.65 3.39 C 5.85 3.79 6.09 4.34 6.36 5.02 C 6.67 5.78 6.91 6.4 7.07 6.89 L 6.85 6.91 L 6.85 6.91 Z M 6.85 6.91" />
</svg>